<?xml version="1.0" encoding="UTF-8"?>
<svg width="37px" height="43px" viewBox="0 0 37 43" version="1.1" xmlns="http://www.w3.org/2000/svg" xmlns:xlink="http://www.w3.org/1999/xlink">
    <!-- Generator: Sketch 46.2 (44496) - http://www.bohemiancoding.com/sketch -->
    <title>Shape</title>
    <desc>Created with Sketch.</desc>
    <defs></defs>
    <g id="Carthage-CoC-Mockups" stroke="none" stroke-width="1" fill="none" fill-rule="evenodd">
        <g id="Sermons-Admin" transform="translate(-39.000000, -25.000000)" fill="#00AEFF">
            <path d="M82.2384226,51.0293726 C82.0215598,50.8087137 81.7541005,50.6164225 81.4751512,50.4837624 C81.1158347,50.3130577 80.7218824,50.2158784 80.3332174,50.0835494 C81.1685027,49.7079823 81.2514268,49.6238707 81.4875528,48.9250895 L81.1330343,48.3572316 C79.904207,47.7299085 78.6844746,47.915831 77.4771437,48.4158699 C76.4659249,48.8346092 75.4744625,49.3040475 74.4543973,49.6995465 C73.1843999,50.191894 71.8903413,50.3332379 70.5836326,50.309336 C70.5239411,50.2999074 70.4635868,50.2918024 70.4024868,50.2864264 C68.7021571,50.1433458 66.7830589,49.7590117 65.020556,49.2271308 C65.2664359,48.9200446 65.501899,48.6099803 65.7066917,48.2809768 C66.1317327,47.5983236 65.998374,47.36989 65.1814443,47.0925775 C65.634433,46.6008919 66.0857646,46.1460927 66.4956775,45.6563918 C66.8625975,45.2180514 67.2151312,44.7605228 67.514997,44.2749572 C67.7326055,43.9230442 67.8476086,43.490493 67.5363278,43.125678 C67.2003307,42.7322465 66.7399042,42.7927044 66.2943571,42.9079964 C66.1796026,42.9376876 66.0733631,42.9997169 65.89726,43.0753101 C66.1886976,42.2358465 66.4977412,41.4816525 66.7058404,40.7008272 C66.8613546,40.1164281 66.971315,39.4944806 66.9533736,38.8938714 C66.9126139,37.5265794 66.3023788,37.1907939 65.1014953,37.7985163 C65.1889688,36.8263096 65.3207571,35.8565845 65.3491153,34.8837167 C65.3700318,34.1656651 65.3204257,33.4310722 65.1868184,32.7257572 C64.9692967,31.5747412 64.6157686,31.4697876 63.7660181,32.2108313 C63.6894585,31.5200726 63.6337326,30.8283215 63.5278245,30.144014 C63.480286,29.8372582 63.3518082,29.5376151 63.2272959,29.2488066 C62.8667404,28.4122378 62.4787383,28.3484717 61.8220379,28.9643817 C61.5929393,28.2530291 61.3592124,27.5238952 61.1224235,26.7956706 C61.0995223,26.7254534 61.0629806,26.6593715 61.0276779,26.5938684 C60.6400901,25.8798697 60.3928016,25.8518324 59.8817786,26.4707196 C59.3629785,25.5727831 59.1868793,24.4373153 58.114229,23.9298329 L57.6413181,24.2254234 C57.2605091,25.2977864 57.4207345,26.3813146 57.6075858,27.4550839 C57.6531396,27.7165996 57.6912556,27.9767918 57.7229203,28.23624 C57.6777769,28.4805529 57.6909242,28.7349558 57.7816214,28.9795995 C57.8690081,30.0300455 57.8382548,31.017056 57.7266412,31.9905857 C57.6852186,32.170471 57.6439618,32.3506867 57.6025432,32.5304891 C57.5850122,32.6067439 57.5981594,32.6718334 57.6285023,32.7241859 C57.311437,34.7360041 56.6546498,36.6924093 55.8076258,38.6192054 C55.605895,39.07814 55.4355803,39.550886 55.2416227,40.0134594 C54.3389556,42.1663737 55.06825,44.0792755 56.0912903,45.9601703 C56.4367138,46.5955988 56.7531201,47.2507938 57.0270268,47.9199664 C57.116485,48.1386403 57.1875875,48.3488783 57.240583,48.5506805 C56.656966,47.6942623 56.0731043,46.8377613 55.4894873,45.9816735 C55.1532416,45.3689067 54.7548187,44.7935224 54.2585923,44.2789272 C54.0693459,44.0829143 53.7701391,43.9927652 53.5215287,43.8540675 C53.4042095,44.0882078 53.2868114,44.3224302 53.1646981,44.5656679 C52.8358073,44.1881991 52.4893935,43.7429938 52.0923792,43.3489009 C51.7523298,43.0111304 51.3796214,42.6932093 50.9775645,42.4347538 C50.1865111,41.9258651 49.8319926,42.0895399 49.6232344,42.9031166 C48.9479298,42.3321985 48.2449284,41.7207548 47.5200177,41.1366039 C47.338542,40.9901319 47.0936533,40.9115614 46.8666227,40.8342318 C46.2881328,40.6371437 46.0901216,40.7201804 45.8155517,41.2007011 C45.2282983,40.8700434 44.6666745,40.4819876 44.0507318,40.2237804 C43.1372356,39.8407698 42.7085563,40.0725943 42.4167067,41.007004 C41.3774588,40.2724115 40.2348648,39.794951 38.9729685,39.706125 C38.3337936,39.6612985 37.6786625,39.7263876 37.0418026,39.8188529 C36.7489614,39.8613636 36.4524819,40.0527449 36.2160265,40.247434 C36.0696057,40.3679366 35.9350076,40.6442564 35.973783,40.8085927 C36.0115664,40.9685458 36.2605066,41.1129503 36.4471082,41.1943324 C36.646442,41.2814217 36.879508,41.3009403 37.1005032,41.3249251 C39.7555874,41.6127409 41.8314376,43.0337088 43.6506588,44.833304 C44.7661348,45.9370953 45.715017,47.2135762 46.6993675,48.4438247 C47.2687629,49.1554251 47.9777994,49.6214721 48.8207738,49.9073033 C50.1531931,50.3591248 51.5520866,50.6513243 52.6793817,51.5839976 C52.8355587,51.7065674 52.9174924,51.7929122 53.013978,51.8674302 C52.6560702,51.9626245 52.2303663,52.0085262 51.8121041,52.0851118 C50.9579699,52.2414255 50.1005291,52.4404983 49.2849212,52.7330286 C46.8987013,53.5893643 46.0274527,56.341978 47.4229552,58.4546969 C47.6928123,58.8630154 47.9046304,59.3093783 48.1832514,59.8098313 C48.6244132,60.4563422 48.4041638,61.2054909 48.6052329,61.0361097 C48.8063047,60.8666457 49.0072898,60.1705109 49.133124,59.9748292 C49.2771481,59.529376 49.4970688,59.258101 50.0678701,59.1943346 C50.9030725,59.1007945 51.5901987,58.5781768 51.9487694,57.9343125 C52.1623217,57.8729447 52.3758779,57.8111633 52.5893474,57.7497956 C54.5862441,57.7392922 56.3322104,58.501922 58.1530869,58.9203306 C59.6311835,59.2597549 61.1255683,59.6164649 62.6310287,59.7315915 C65.5997893,59.9587016 67.7715462,58.5794999 69.0324486,55.8679085 C69.0945391,55.7345867 69.1518354,55.5989492 69.207806,55.4626502 C69.4466625,55.4525601 69.6857635,55.4494999 69.924616,55.4566127 C70.0922831,55.4613267 70.2596227,55.4690185 70.4268755,55.4795223 C70.4842547,55.5088002 70.5419654,55.5365063 70.6026472,55.5476716 C70.8252155,55.5891899 71.0411669,55.6388134 71.2513298,55.6951363 C71.374106,55.7625412 71.5049828,55.8186158 71.6450375,55.8577355 C72.0174144,55.961366 72.4077327,56.1118077 72.7868885,56.2970686 C74.1961987,57.0501874 75.2470211,58.2522332 75.9945015,59.84556 C76.1634944,60.2059093 76.4238434,60.5504613 76.7180904,60.8197513 C77.3660272,61.4133307 78.0440584,61.1773711 78.2531519,60.3226897 C78.2959753,60.2352697 78.3226801,60.2221194 78.347566,60.2064879 C78.4623205,60.1346993 78.5607908,60.0536476 78.6477672,59.966972 C78.973016,60.1374288 79.3008296,60.308795 79.6301346,60.4812368 L80.292292,60.0672116 C80.628869,59.4122644 80.8461422,58.7373854 80.6596262,57.9817855 C80.7553661,57.9619361 80.8492041,57.9329061 80.9405602,57.8971774 C81.3739544,58.0135446 81.7818787,58.0733406 82.1093647,57.6815634 C82.5310992,57.177389 82.388314,56.5940651 82.1860032,56.0435755 C82.1010116,55.8124958 81.9734413,55.5958065 81.8469482,55.3643132 C81.9217676,55.3141107 81.9930359,55.2587805 82.0600862,55.1979918 C82.4992687,55.2347132 82.9266259,55.2222245 83.1891213,54.770403 C83.4093735,54.3918586 83.253528,53.7338513 82.830886,53.2913755 C82.5808709,53.0304388 82.2864582,52.8117646 82.0113916,52.5735721 C82.7596177,52.0856079 82.8362601,51.637839 82.2384226,51.0293726 L82.2384226,51.0293726 Z" id="Shape" transform="translate(59.627915, 42.539259) rotate(28.000000) translate(-59.627915, -42.539259) "></path>
        </g>
    </g>
</svg>