<?xml version="1.0" encoding="UTF-8"?>
<svg width="65px" height="44px" viewBox="0 0 65 44" version="1.1" xmlns="http://www.w3.org/2000/svg" xmlns:xlink="http://www.w3.org/1999/xlink">
    <!-- Generator: Sketch 46.2 (44496) - http://www.bohemiancoding.com/sketch -->
    <title>email-filled-closed-envelope</title>
    <desc>Created with Sketch.</desc>
    <defs></defs>
    <g id="Carthage-CoC-Mockups" stroke="none" stroke-width="1" fill="none" fill-rule="evenodd">
        <g id="Home-Alt" transform="translate(-1087.000000, -1499.000000)" fill="#00AEFF">
            <g id="email-filled-closed-envelope" transform="translate(1087.000000, 1499.000000)">
                <g id="Capa_1">
                    <path d="M32.5815686,26.380039 L32.595482,26.380039 C33.0856373,26.380039 33.5700572,26.2363415 33.961969,25.9747024 L34.0682843,25.9056976 C34.0914379,25.8904585 34.1156536,25.8766146 34.1399755,25.8601951 L35.3781618,24.825122 L64.9318137,0.182546341 C64.8706373,0.0972292683 64.7664461,0.0388487805 64.6554575,0.0388487805 L0.343374183,0.0388487805 C0.263611111,0.0388487805 0.189583333,0.0680390244 0.130637255,0.117082927 L31.0507761,25.8682439 C31.4404575,26.1942732 31.9964624,26.380039 32.5815686,26.380039 L32.5815686,26.380039 Z M0,3.53062439 L0,40.0581366 L22.1499183,21.978322 L0,3.53062439 L0,3.53062439 Z M42.8732353,22.1009854 L65,40.0674732 L65,3.65210732 L42.8732353,22.1009854 L42.8732353,22.1009854 Z M35.8382598,27.9652195 C34.9561928,28.696478 33.8024428,29.099561 32.5908088,29.099561 C31.3746078,29.099561 30.2219199,28.698839 29.3421895,27.9710146 L24.2691095,23.7433659 L0,43.5499122 L0,43.6129073 C0,43.8010341 0.159526144,43.9610439 0.347941176,43.9610439 L64.6566258,43.9610439 C64.8415359,43.9610439 64.9998938,43.8010341 64.9998938,43.6117268 L64.9998938,43.5533463 L40.7517075,23.8673171 L35.8382598,27.9652195 L35.8382598,27.9652195 Z" id="Shape"></path>
                </g>
            </g>
        </g>
    </g>
</svg>