<?xml version="1.0" encoding="UTF-8"?>
<svg width="45px" height="60px" viewBox="0 0 45 60" version="1.1" xmlns="http://www.w3.org/2000/svg" xmlns:xlink="http://www.w3.org/1999/xlink">
    <!-- Generator: Sketch 46.2 (44496) - http://www.bohemiancoding.com/sketch -->
    <title>placeholder-filled-point</title>
    <desc>Created with Sketch.</desc>
    <defs></defs>
    <g id="Carthage-CoC-Mockups" stroke="none" stroke-width="1" fill="none" fill-rule="evenodd">
        <g id="Home-Alt" transform="translate(-698.000000, -1499.000000)" fill="#00AEFF">
            <g id="placeholder-filled-point" transform="translate(698.000000, 1499.000000)">
                <g id="Capa_1">
                    <path d="M22.7188356,0 C10.4923973,0 0.544315068,9.88040816 0.544315068,22.024898 C0.544315068,25.1926531 1.19712329,28.2171429 2.48363014,31.015102 C8.02787671,43.0646939 18.6577397,55.7865306 21.7843151,59.3981633 C22.0185616,59.6681633 22.3600685,59.8236735 22.7194521,59.8236735 C23.0788356,59.8236735 23.4203425,59.6681633 23.654589,59.3981633 C26.7799315,55.7871429 37.4097945,43.0659184 42.9558904,31.015102 C44.2430137,28.2171429 44.8952055,25.1926531 44.8952055,22.024898 C44.8939726,9.88040816 34.9458904,0 22.7188356,0 L22.7188356,0 Z M22.7188356,33.4646939 C16.3676712,33.4646939 11.2000685,28.3322449 11.2000685,22.0242857 C11.2000685,15.7157143 16.3676712,10.5832653 22.7188356,10.5832653 C29.07,10.5832653 34.2376027,15.7157143 34.2376027,22.0242857 C34.2382192,28.3322449 29.0706164,33.4646939 22.7188356,33.4646939 L22.7188356,33.4646939 Z" id="Shape"></path>
                </g>
            </g>
        </g>
    </g>
</svg>