<?xml version="1.0" encoding="UTF-8"?>
<svg width="100px" height="116px" viewBox="0 0 100 116" version="1.1" xmlns="http://www.w3.org/2000/svg" xmlns:xlink="http://www.w3.org/1999/xlink">
    <!-- Generator: Sketch 46.2 (44496) - http://www.bohemiancoding.com/sketch -->
    <title>mail</title>
    <desc>Created with Sketch.</desc>
    <defs></defs>
    <g id="Carthage-CoC-Mockups" stroke="none" stroke-width="1" fill="none" fill-rule="evenodd">
        <g id="Home-Alt" transform="translate(-175.000000, -1748.000000)">
            <g id="mail" transform="translate(175.000000, 1748.000000)">
                <g id="Created-with-Sketch.">
                    <g id="mailbox">
                        <g id="Capa_1">
                            <rect id="Rectangle-path" fill="#5AC9FF" x="40.1307277" y="82.0220047" width="9.819407" height="33.9725874"></rect>
                            <polygon id="Shape" fill="#057AB1" points="99.8207548 73.004289 99.8207548 82.0220047 49.9501346 82.0220047 40.1307277 82.0220047 0.173854447 82.0220047 0.173854447 73.004289 47.9770889 73.004289 86.9177899 73.004289"></polygon>
                            <rect id="Rectangle-path" fill="#055276" x="40.1307277" y="82.1993848" width="9.819407" height="11.4120746"></rect>
                            <polygon id="Shape" fill="#E2D9C3" points="86.9177899 73.004289 47.9770889 73.004289 47.9770889 54.8282517 48.7021562 55.5664337 52.828841 59.7548716 59.2223719 66.2443825 69.7398922 55.5637296"></polygon>
                            <polygon id="Shape" fill="#C6BDA7" points="86.9177899 38.1258741 86.9177899 73.004289 69.7398922 55.5637296"></polygon>
                            <path d="M86.9177899,38.1258741 L69.7398922,55.5637296 L59.2223719,66.2443825 L52.828841,59.7548716 L48.7021562,55.5664337 L47.9770889,54.8282517 L47.9770889,47.0002797 C47.9770889,43.8826107 48.524259,40.8947319 49.524259,38.1258741 L86.9177899,38.1258741 L86.9177899,38.1258741 L86.9177899,38.1258741 Z" id="Shape" fill="#FCF4DE"></path>
                            <path d="M73.8989217,20.9935664 L73.8989217,20.9962704 C62.6886793,20.9962704 53.1415092,28.132028 49.524259,38.1258741 C48.524259,40.8947319 47.9770889,43.8826107 47.9770889,47.0002797 L47.9770889,54.8282517 L47.9770889,73.004289 L0.173854447,73.004289 L0.173854447,47.0002797 C0.173854447,32.6368298 11.7803235,20.9935664 26.0983828,20.9935664 L30.8530997,20.9935664 L30.8530997,47.7168297 C30.8530997,50.3504895 32.9824798,52.4866198 35.6105121,52.4866198 C36.9231806,52.4866198 38.1118598,51.9539395 38.9716981,51.0886715 C39.8315364,50.226107 40.3652291,49.0336598 40.3652291,47.7168297 L40.3652291,20.9935664 L40.3679245,20.9935664 L73.8989217,20.9935664 L73.8989217,20.9935664 L73.8989217,20.9935664 Z" id="Shape" fill="#5AC9FF"></path>
                            <path d="M54.3760106,38.1258741 C53.3760106,40.8947319 52.828841,43.8826107 52.828841,47.0002797 L52.828841,59.7548716 L48.7021562,55.5664337 L47.9770889,54.8282517 L47.9770889,47.0002797 C47.9770889,43.8826107 48.524259,40.8947319 49.524259,38.1258741 L54.3760106,38.1258741 L54.3760106,38.1258741 L54.3760106,38.1258741 Z" id="Shape" fill="#E2D9C3"></path>
                            <path d="M55.0366576,20.9935664 L60.9598382,20.9935664 C60.9598382,20.9935664 56.3115903,22.3260792 55.7474392,22.5513194 C46.6609166,26.1805781 40.1714286,35.7574732 40.1714286,47.0002797 L40.1714286,49.4176222 L31.3784366,49.4176222 L31.3784366,47.0002797 C31.3787062,32.6368298 41.9703504,20.9935664 55.0366576,20.9935664 L55.0366576,20.9935664 L55.0366576,20.9935664 Z" id="Shape" fill="#057AB1"></path>
                            <path d="M99.8207548,47.0002797 L99.8207548,73.004289 L86.9177899,73.004289 L86.9177899,38.1258741 L49.524259,38.1258741 C49.9070083,37.0659208 50.3571429,36.0384149 50.8692724,35.0487646 C55.1846359,26.6989277 63.8773585,20.9962704 73.8989217,20.9962704 C75.6994608,20.9962704 77.4568733,21.1801399 79.1522912,21.528951 C90.9528304,23.9652215 99.8207548,34.4430769 99.8207548,47.0002797 L99.8207548,47.0002797 L99.8207548,47.0002797 Z" id="Shape" fill="#7C6655"></path>
                            <path d="M40.3652291,20.9935664 L40.3652291,47.7168297 C40.3652291,49.0336598 39.8315364,50.226107 38.9716981,51.0886715 C38.1118598,51.9539395 36.9231806,52.4866198 35.6105121,52.4866198 C32.9824798,52.4866198 30.8530997,50.3504895 30.8530997,47.7168297 L30.8530997,20.9935664 L30.8530997,15.2692774 C30.8530997,12.6329138 28.7237197,10.4967832 26.0983828,10.4967832 L22.2924528,10.4967832 C19.6644205,10.4967832 17.5350404,8.36065268 17.5350404,5.72699302 L17.5350404,4.77249418 C17.5350404,2.13613054 19.6644205,0 22.2924528,0 L30.8530997,0 L35.6105121,0 C38.2358491,0 40.3652291,2.13613054 40.3652291,4.77249418 L40.3652291,10.4967832 L40.3652291,20.9935664 L40.3652291,20.9935664 L40.3652291,20.9935664 Z" id="Shape" fill="#00AEFF"></path>
                            <polygon id="Shape" fill="#C6BDA7" points="52.828841 59.7548716 52.828841 73.004289 47.9770889 73.004289 47.9770889 54.8282517 48.7021562 55.5664337"></polygon>
                        </g>
                    </g>
                </g>
            </g>
        </g>
    </g>
</svg>