<?xml version="1.0" encoding="UTF-8"?>
<svg width="49px" height="49px" viewBox="0 0 49 49" version="1.1" xmlns="http://www.w3.org/2000/svg" xmlns:xlink="http://www.w3.org/1999/xlink">
    <!-- Generator: Sketch 46.2 (44496) - http://www.bohemiancoding.com/sketch -->
    <title>phone-receiver</title>
    <desc>Created with Sketch.</desc>
    <defs></defs>
    <g id="Carthage-CoC-Mockups" stroke="none" stroke-width="1" fill="none" fill-rule="evenodd">
        <g id="Home-Alt" transform="translate(-288.000000, -1499.000000)" fill="#00AEFF">
            <g id="phone-receiver" transform="translate(288.000000, 1499.000000)">
                <g id="Capa_1">
                    <path d="M48.9009845,38.6682907 C49.0046546,39.4639048 48.7626166,40.1556696 48.175886,40.7435848 L41.2874508,47.591801 C40.9766943,47.9376834 40.5710691,48.2319377 40.0704059,48.473801 C39.5697427,48.7160035 39.0777962,48.8716505 38.5945665,48.9407422 C38.560038,48.9407422 38.4561986,48.9496436 38.2834715,48.9669377 C38.1110829,48.9841471 37.8866477,48.9929637 37.6104197,48.9929637 C36.954209,48.9929637 35.8923731,48.8805519 34.4249119,48.6556436 C32.9574508,48.4307353 31.1620535,47.8772388 29.0387202,46.9954083 C26.9148791,46.1134083 24.506601,44.7902388 21.8134629,43.0264083 C19.1203247,41.2626626 16.2543748,38.8413166 13.215867,35.7628789 C10.7988722,33.3762907 8.79621934,31.0934671 7.20790846,28.9144931 C5.61959758,26.7353495 4.34204318,24.7205848 3.37524525,22.8701142 C2.40836269,21.0196436 1.68326425,19.3421142 1.19986528,17.837526 C0.716466321,16.3329377 0.388445596,15.0358789 0.215803109,13.9463495 C0.0431606218,12.8568201 -0.0258963731,12.0007612 0.00863212435,11.378173 C0.0431606218,10.7555848 0.0604248705,10.4097024 0.0604248705,10.340526 C0.129481865,9.85629066 0.284860104,9.3634083 0.526559585,8.86187889 C0.768259067,8.36034948 1.0617513,7.95393772 1.40703627,7.6426436 L8.2954715,0.742290657 C8.77887047,0.258055363 9.33132642,0.0159377163 9.95283938,0.0159377163 C10.4017098,0.0159377163 10.7987876,0.145643599 11.1440725,0.405055363 C11.4893575,0.664467128 11.7828497,0.984408304 12.0245492,1.36487889 L17.5663731,11.8969965 C17.8771295,12.4504083 17.9634508,13.0557024 17.8253368,13.7128789 C17.6872228,14.3700554 17.3937306,14.9234671 16.9448601,15.3731142 L14.4070155,17.9153495 C14.3379585,17.984526 14.2775337,18.0969377 14.2257409,18.2525848 C14.1739482,18.4082318 14.1480518,18.5379377 14.1480518,18.6417024 C14.2861658,19.3680554 14.5969223,20.198173 15.0803212,21.1320554 C15.4946632,21.962173 16.1334404,22.9738789 16.9966528,24.167173 C17.8598653,25.3604671 19.0856269,26.7352647 20.6739378,28.2917353 C22.2277202,29.8829637 23.6088601,31.1193235 24.8173575,32.0014931 C26.025601,32.883154 27.0358981,33.5319377 27.8473178,33.9469965 C28.6587375,34.3620554 29.2802504,34.6128201 29.711772,34.6990363 L30.3590121,34.828827 C30.4280691,34.828827 30.5405406,34.802801 30.6957496,34.7510035 C30.8511278,34.6990363 30.9633454,34.6385917 31.032487,34.5693304 L33.9845889,31.560154 C34.6064404,31.006827 35.3312003,30.7301211 36.1599689,30.7301211 C36.7471226,30.7301211 37.2130035,30.833801 37.5582884,31.0414152 L37.6099965,31.0414152 L47.6059119,36.9560035 C48.3312642,37.4059896 48.7627858,37.976526 48.9009845,38.6682907 L48.9009845,38.6682907 Z" id="Shape"></path>
                </g>
            </g>
        </g>
    </g>
</svg>