<?xml version="1.0" encoding="UTF-8"?>
<svg width="50px" height="50px" viewBox="0 0 50 50" version="1.1" xmlns="http://www.w3.org/2000/svg" xmlns:xlink="http://www.w3.org/1999/xlink">
    <!-- Generator: Sketch 46.2 (44496) - http://www.bohemiancoding.com/sketch -->
    <title>Youtube</title>
    <desc>Created with Sketch.</desc>
    <defs></defs>
    <g id="Carthage-CoC-Mockups" stroke="none" stroke-width="1" fill="none" fill-rule="evenodd">
        <g id="Home-Alt" transform="translate(-845.000000, -972.000000)">
            <g id="Youtube" transform="translate(845.000000, 972.000000)">
                <circle id="Oval-20" fill="#00AEFF" cx="25" cy="25" r="25"></circle>
                <g id="youtube" transform="translate(12.000000, 9.000000)" fill="#FFFFFF">
                    <g id="Group">
                        <path d="M16.0208182,20.8935385 C15.7547455,20.8935385 15.4867091,21.0200615 15.2181818,21.2824615 L15.2181818,26.6973538 C15.4867091,26.9651692 15.7547455,27.0941538 16.0208182,27.0941538 C16.4827636,27.0941538 16.7193818,26.6973538 16.7193818,25.8958769 L16.7193818,22.1060923 C16.7198727,21.3026462 16.4827636,20.8935385 16.0208182,20.8935385 L16.0208182,20.8935385 Z" id="Shape"></path>
                        <path d="M21.8950364,20.8935385 C21.3584727,20.8935385 21.0889636,21.3026462 21.0889636,22.1252923 L21.0889636,22.9479385 L22.6962,22.9479385 L22.6962,22.1252923 C22.6966909,21.3026462 22.4281636,20.8935385 21.8950364,20.8935385 L21.8950364,20.8935385 Z" id="Shape"></path>
                        <g id="Shape">
                            <path d="M25.2307636,14.7933538 C24.2219455,13.7403077 23.0918727,13.7358769 22.5729818,13.6753231 C18.8636727,13.4094769 13.3002,13.4094769 13.3002,13.4094769 L13.2879273,13.4094769 C13.2879273,13.4094769 7.72445455,13.4094769 4.01170909,13.6753231 C3.49429091,13.7358769 2.36618182,13.7408 1.35638182,14.7933538 C0.562090909,15.5968 0.3024,17.4158769 0.3024,17.4158769 C0.3024,17.4158769 0.0392727273,19.5539692 0.0392727273,21.6915692 L0.0392727273,23.6967385 C0.0392727273,25.8338462 0.3024,27.9729231 0.3024,27.9729231 C0.3024,27.9729231 0.562090909,29.792 1.35638182,30.5924923 C2.36618182,31.6455385 3.68967273,31.6125538 4.27827273,31.7223385 C6.40096364,31.9256615 13.2938182,31.9872 13.2938182,31.9872 C13.2938182,31.9872 18.8641636,31.9793231 22.5734727,31.7105231 C23.0923636,31.6509538 24.2224364,31.6450462 25.2312545,30.5924923 C26.0260364,29.792 26.2852364,27.9729231 26.2852364,27.9729231 C26.2852364,27.9729231 26.5483636,25.8338462 26.5483636,23.6967385 L26.5483636,21.6915692 C26.5483636,19.5539692 26.2852364,17.4158769 26.2852364,17.4158769 C26.2852364,17.4158769 26.0255455,15.5968 25.2307636,14.7933538 L25.2307636,14.7933538 Z M5.8806,28.4332308 L4.09270909,28.4332308 L4.09270909,18.1922462 L2.20221818,18.1922462 L2.20221818,16.5154462 L7.80545455,16.5154462 L7.80545455,18.1922462 L5.88109091,18.1922462 L5.88109091,28.4332308 L5.8806,28.4332308 Z M12.2192182,28.4332308 L10.6100182,28.4332308 L10.6100182,27.4638769 C9.97232727,28.1969231 9.36310909,28.5572923 8.77303636,28.5572923 C8.25561818,28.5572923 7.89872727,28.3446154 7.73623636,27.8946462 C7.64885455,27.6258462 7.59583636,27.2009846 7.59583636,26.5737846 L7.59583636,19.5529846 L9.20356364,19.5529846 L9.20356364,26.0908308 C9.20356364,26.4674462 9.20356364,26.6638769 9.21534545,26.7160615 C9.25609091,26.9656615 9.38029091,27.0946462 9.59383636,27.0946462 C9.91685455,27.0946462 10.2521455,26.8450462 10.6095273,26.3399385 L10.6095273,19.5529846 L12.2187273,19.5529846 L12.2187273,28.4332308 L12.2192182,28.4332308 Z M18.3261273,25.7703385 C18.3261273,26.5890462 18.2721273,27.1812923 18.1636364,27.5579077 C17.9486182,28.2195692 17.5190727,28.5572923 16.8808909,28.5572923 C16.3075091,28.5572923 15.7547455,28.2387692 15.2181818,27.5731692 L15.2181818,28.4332308 L13.6094727,28.4332308 L13.6094727,16.5154462 L15.2181818,16.5154462 L15.2181818,20.4071385 C15.7365818,19.7676308 16.2878727,19.4441846 16.8808909,19.4441846 C17.5185818,19.4441846 17.9481273,19.7828923 18.1636364,20.4465231 C18.2721273,20.8054154 18.3261273,21.3907692 18.3261273,22.2326154 L18.3261273,25.7703385 L18.3261273,25.7703385 Z M24.3049091,24.2855385 L21.0894545,24.2855385 L21.0894545,25.8604308 C21.0894545,26.6830769 21.3589636,27.0941538 21.9107455,27.0941538 C22.3064182,27.0941538 22.5366545,26.8775385 22.6289455,26.4487385 C22.6431818,26.3611077 22.6647818,26.0017231 22.6647818,25.3563077 L24.3049091,25.3563077 L24.3049091,25.5921231 C24.3049091,26.1095385 24.2838,26.4664615 24.2700545,26.6289231 C24.2170364,26.9848615 24.0894,27.3073231 23.8940182,27.5913846 C23.4492545,28.2372923 22.7894727,28.5563077 21.9485455,28.5563077 C21.1086,28.5563077 20.4689455,28.2520615 20.0045455,27.6440615 C19.6628727,27.2 19.4886,26.4989538 19.4886,25.5561846 L19.4886,22.4452923 C19.4886,21.4966154 19.6447091,20.8044308 19.9854,20.3534769 C20.4498,19.7459692 21.0894545,19.4432 21.9107455,19.4432 C22.7173091,19.4432 23.3574545,19.7454769 23.8071273,20.3534769 C24.1434,20.8044308 24.3054,21.4966154 24.3054,22.4452923 L24.3054,24.2855385 L24.3049091,24.2855385 Z"></path>
                            <path d="M9.0504,12.5213538 L9.0504,7.64356923 L11.2162909,0.479507692 L9.39501818,0.479507692 L8.16627273,5.20812308 L6.88745455,0.479507692 L4.99107273,0.479507692 C5.37250909,1.59606154 5.7672,2.71655385 6.14765455,3.83507692 C6.72398182,5.51433846 7.08529091,6.78006154 7.24925455,7.64307692 L7.24925455,12.5208615 L9.0504,12.5208615 L9.0504,12.5213538 Z"></path>
                            <path d="M13.2776182,12.6449231 C14.0905636,12.6449231 14.7218727,12.3377231 15.1715455,11.7272615 C15.5112545,11.2792615 15.6766909,10.5723077 15.6766909,9.61673846 L15.6766909,6.47236923 C15.6766909,5.51483077 15.5112545,4.81476923 15.1715455,4.36086154 C14.7213818,3.74547692 14.0905636,3.44024615 13.2776182,3.44024615 C12.4656545,3.44024615 11.8328727,3.74547692 11.3856545,4.36086154 C11.0385818,4.81476923 10.8780545,5.51483077 10.8780545,6.47236923 L10.8780545,9.61673846 C10.8780545,10.5723077 11.0385818,11.2792615 11.3856545,11.7272615 C11.8328727,12.3377231 12.4656545,12.6449231 13.2776182,12.6449231 L13.2776182,12.6449231 Z M12.5014909,6.14695385 C12.5014909,5.31692308 12.7538182,4.90190769 13.2776182,4.90190769 C13.7989636,4.90190769 14.0498182,5.31741538 14.0498182,6.14695385 L14.0498182,9.92246154 C14.0498182,10.7529846 13.7989636,11.168 13.2776182,11.168 C12.7538182,11.168 12.5014909,10.7524923 12.5014909,9.92246154 L12.5014909,6.14695385 L12.5014909,6.14695385 Z"></path>
                            <path d="M21.5941091,12.5213538 L21.5941091,3.54609231 L19.9701818,3.54609231 L19.9701818,10.4064 C19.6103455,10.9154462 19.2696545,11.1684923 18.9451636,11.1684923 C18.7267091,11.1684923 18.5976,11.0380308 18.5637273,10.7879385 C18.5431091,10.7342769 18.5431091,10.5368615 18.5431091,10.1553231 L18.5431091,3.54609231 L16.9236,3.54609231 L16.9236,10.6441846 C16.9236,11.2787692 16.9766182,11.7080615 17.0674364,11.9788308 C17.2304182,12.4317538 17.5917273,12.6449231 18.1145455,12.6449231 C18.7056,12.6449231 19.3221818,12.2845538 19.9706727,11.5421538 L19.9706727,12.5213538 L21.5941091,12.5213538 L21.5941091,12.5213538 Z"></path>
                        </g>
                    </g>
                </g>
            </g>
        </g>
    </g>
</svg>